<mxfile host="app.diagrams.net" modified="2021-04-11T14:24:23.991Z" agent="5.0 (Windows NT 10.0; Win64; x64) AppleWebKit/537.36 (KHTML, like Gecko) Chrome/89.0.4389.114 Safari/537.36" etag="r_pXlIncofIoMhoyXhxw" version="13.9.9" type="github">
  <diagram id="PUp8UV0cr99GIHCaGAy2" name="Page-1">
    <mxGraphModel dx="1673" dy="896" grid="1" gridSize="10" guides="1" tooltips="1" connect="1" arrows="1" fold="1" page="1" pageScale="1" pageWidth="827" pageHeight="1169" math="0" shadow="0">
      <root>
        <mxCell id="0" />
        <mxCell id="1" parent="0" />
        <mxCell id="qj1gUJCnYpDQknOjHMuC-3" style="edgeStyle=orthogonalEdgeStyle;rounded=0;orthogonalLoop=1;jettySize=auto;html=1;exitX=0.5;exitY=1;exitDx=0;exitDy=0;entryX=0.5;entryY=0;entryDx=0;entryDy=0;" edge="1" parent="1" source="qj1gUJCnYpDQknOjHMuC-1" target="qj1gUJCnYpDQknOjHMuC-2">
          <mxGeometry relative="1" as="geometry" />
        </mxCell>
        <mxCell id="qj1gUJCnYpDQknOjHMuC-27" style="edgeStyle=orthogonalEdgeStyle;rounded=0;orthogonalLoop=1;jettySize=auto;html=1;entryX=0;entryY=0.5;entryDx=0;entryDy=0;" edge="1" parent="1" source="qj1gUJCnYpDQknOjHMuC-1" target="qj1gUJCnYpDQknOjHMuC-12">
          <mxGeometry relative="1" as="geometry">
            <Array as="points">
              <mxPoint x="280" y="160" />
              <mxPoint x="280" y="860" />
            </Array>
          </mxGeometry>
        </mxCell>
        <mxCell id="qj1gUJCnYpDQknOjHMuC-1" value="1" style="ellipse;whiteSpace=wrap;html=1;aspect=fixed;" vertex="1" parent="1">
          <mxGeometry x="360" y="120" width="80" height="80" as="geometry" />
        </mxCell>
        <mxCell id="qj1gUJCnYpDQknOjHMuC-14" style="edgeStyle=orthogonalEdgeStyle;rounded=0;orthogonalLoop=1;jettySize=auto;html=1;exitX=0.5;exitY=1;exitDx=0;exitDy=0;" edge="1" parent="1" source="qj1gUJCnYpDQknOjHMuC-2" target="qj1gUJCnYpDQknOjHMuC-4">
          <mxGeometry relative="1" as="geometry" />
        </mxCell>
        <mxCell id="qj1gUJCnYpDQknOjHMuC-2" value="2" style="ellipse;whiteSpace=wrap;html=1;aspect=fixed;" vertex="1" parent="1">
          <mxGeometry x="360" y="240" width="80" height="80" as="geometry" />
        </mxCell>
        <mxCell id="qj1gUJCnYpDQknOjHMuC-15" style="edgeStyle=orthogonalEdgeStyle;rounded=0;orthogonalLoop=1;jettySize=auto;html=1;exitX=0.5;exitY=1;exitDx=0;exitDy=0;" edge="1" parent="1" source="qj1gUJCnYpDQknOjHMuC-4" target="qj1gUJCnYpDQknOjHMuC-5">
          <mxGeometry relative="1" as="geometry" />
        </mxCell>
        <mxCell id="qj1gUJCnYpDQknOjHMuC-17" style="edgeStyle=orthogonalEdgeStyle;rounded=0;orthogonalLoop=1;jettySize=auto;html=1;exitX=1;exitY=0.5;exitDx=0;exitDy=0;entryX=0;entryY=0.5;entryDx=0;entryDy=0;" edge="1" parent="1" source="qj1gUJCnYpDQknOjHMuC-4" target="qj1gUJCnYpDQknOjHMuC-7">
          <mxGeometry relative="1" as="geometry" />
        </mxCell>
        <mxCell id="qj1gUJCnYpDQknOjHMuC-4" value="3" style="ellipse;whiteSpace=wrap;html=1;aspect=fixed;" vertex="1" parent="1">
          <mxGeometry x="360" y="360" width="80" height="80" as="geometry" />
        </mxCell>
        <mxCell id="qj1gUJCnYpDQknOjHMuC-16" style="edgeStyle=orthogonalEdgeStyle;rounded=0;orthogonalLoop=1;jettySize=auto;html=1;exitX=0.5;exitY=1;exitDx=0;exitDy=0;entryX=0.5;entryY=0;entryDx=0;entryDy=0;" edge="1" parent="1" source="qj1gUJCnYpDQknOjHMuC-5" target="qj1gUJCnYpDQknOjHMuC-10">
          <mxGeometry relative="1" as="geometry" />
        </mxCell>
        <mxCell id="qj1gUJCnYpDQknOjHMuC-5" value="4, 5" style="ellipse;whiteSpace=wrap;html=1;aspect=fixed;" vertex="1" parent="1">
          <mxGeometry x="360" y="480" width="80" height="80" as="geometry" />
        </mxCell>
        <mxCell id="qj1gUJCnYpDQknOjHMuC-18" style="edgeStyle=orthogonalEdgeStyle;rounded=0;orthogonalLoop=1;jettySize=auto;html=1;entryX=0.5;entryY=0;entryDx=0;entryDy=0;" edge="1" parent="1" source="qj1gUJCnYpDQknOjHMuC-7" target="qj1gUJCnYpDQknOjHMuC-8">
          <mxGeometry relative="1" as="geometry" />
        </mxCell>
        <mxCell id="qj1gUJCnYpDQknOjHMuC-20" style="edgeStyle=orthogonalEdgeStyle;rounded=0;orthogonalLoop=1;jettySize=auto;html=1;" edge="1" parent="1" source="qj1gUJCnYpDQknOjHMuC-7" target="qj1gUJCnYpDQknOjHMuC-9">
          <mxGeometry relative="1" as="geometry" />
        </mxCell>
        <mxCell id="qj1gUJCnYpDQknOjHMuC-7" value="6" style="ellipse;whiteSpace=wrap;html=1;aspect=fixed;" vertex="1" parent="1">
          <mxGeometry x="520" y="360" width="80" height="80" as="geometry" />
        </mxCell>
        <mxCell id="qj1gUJCnYpDQknOjHMuC-19" style="edgeStyle=orthogonalEdgeStyle;rounded=0;orthogonalLoop=1;jettySize=auto;html=1;entryX=1;entryY=0.5;entryDx=0;entryDy=0;" edge="1" parent="1" source="qj1gUJCnYpDQknOjHMuC-8" target="qj1gUJCnYpDQknOjHMuC-10">
          <mxGeometry relative="1" as="geometry">
            <Array as="points">
              <mxPoint x="560" y="640" />
            </Array>
          </mxGeometry>
        </mxCell>
        <mxCell id="qj1gUJCnYpDQknOjHMuC-8" value="7" style="ellipse;whiteSpace=wrap;html=1;aspect=fixed;" vertex="1" parent="1">
          <mxGeometry x="520" y="480" width="80" height="80" as="geometry" />
        </mxCell>
        <mxCell id="qj1gUJCnYpDQknOjHMuC-25" style="edgeStyle=orthogonalEdgeStyle;rounded=0;orthogonalLoop=1;jettySize=auto;html=1;exitX=0.5;exitY=1;exitDx=0;exitDy=0;entryX=1;entryY=1;entryDx=0;entryDy=0;" edge="1" parent="1" source="qj1gUJCnYpDQknOjHMuC-9" target="qj1gUJCnYpDQknOjHMuC-10">
          <mxGeometry relative="1" as="geometry">
            <Array as="points">
              <mxPoint x="720" y="668" />
            </Array>
          </mxGeometry>
        </mxCell>
        <mxCell id="qj1gUJCnYpDQknOjHMuC-9" value="8" style="ellipse;whiteSpace=wrap;html=1;aspect=fixed;" vertex="1" parent="1">
          <mxGeometry x="680" y="360" width="80" height="80" as="geometry" />
        </mxCell>
        <mxCell id="qj1gUJCnYpDQknOjHMuC-23" style="edgeStyle=orthogonalEdgeStyle;rounded=0;orthogonalLoop=1;jettySize=auto;html=1;entryX=0.5;entryY=0;entryDx=0;entryDy=0;" edge="1" parent="1" source="qj1gUJCnYpDQknOjHMuC-10" target="qj1gUJCnYpDQknOjHMuC-11">
          <mxGeometry relative="1" as="geometry" />
        </mxCell>
        <mxCell id="qj1gUJCnYpDQknOjHMuC-10" value="9" style="ellipse;whiteSpace=wrap;html=1;aspect=fixed;" vertex="1" parent="1">
          <mxGeometry x="360" y="600" width="80" height="80" as="geometry" />
        </mxCell>
        <mxCell id="qj1gUJCnYpDQknOjHMuC-22" style="edgeStyle=orthogonalEdgeStyle;rounded=0;orthogonalLoop=1;jettySize=auto;html=1;" edge="1" parent="1" source="qj1gUJCnYpDQknOjHMuC-11">
          <mxGeometry relative="1" as="geometry">
            <mxPoint x="440" y="160" as="targetPoint" />
            <Array as="points">
              <mxPoint x="780" y="760" />
              <mxPoint x="780" y="160" />
            </Array>
          </mxGeometry>
        </mxCell>
        <mxCell id="qj1gUJCnYpDQknOjHMuC-11" value="10" style="ellipse;whiteSpace=wrap;html=1;aspect=fixed;" vertex="1" parent="1">
          <mxGeometry x="360" y="720" width="80" height="80" as="geometry" />
        </mxCell>
        <mxCell id="qj1gUJCnYpDQknOjHMuC-12" value="11" style="ellipse;whiteSpace=wrap;html=1;aspect=fixed;" vertex="1" parent="1">
          <mxGeometry x="360" y="820" width="80" height="80" as="geometry" />
        </mxCell>
      </root>
    </mxGraphModel>
  </diagram>
</mxfile>
